# xmcd
#
# Track frame offsets: 
#        150
#        14097
#        25370
#        39892
#        51505
#        65265
#        78182
#        92592
#        105200
#        117565
#        130615
#        143542
#        156162
#        169147
#        182307
#        194712
#        204267
#        217672
#        231667
#        241857
#        253232
#        264762
#        276082
#        291327
#        302112
#        310620
#
# Disc length: 4275 seconds
#
# Revision: 0
# Processed by: cddbd v1.5.2PL0 Copyright (c) Steve Scherf et al.
# Submitted via: ExactAudioCopy v1.3
#
DISCID=6410b11a
DTITLE=Merle Haggard - Hag-The Studio Recordings 1969-1976 [CD4)
DYEAR=2007
DGENRE=Country
TTITLE0=I Wonder If They Ever Think Of Me
TTITLE1=To Each His Own
TTITLE2=I Wonder What She'll Think About Me Leaving
TTITLE3=I'm An Old, Old Man (Tryin' To Live While I Can)
TTITLE4=I'd Never Told On You
TTITLE5=I Wonder If They Ever Think Of Me
TTITLE6=I Forget You Every Day
TTITLE7=Big Bad Bill (Is Sweet William Now)
TTITLE8=If We Make It Through December
TTITLE9=I'll Break Out Tonight
TTITLE10=Love And Honor Never Crossed Your Mind
TTITLE11=This Is The Song We Sing
TTITLE12=There's Just One Way
TTITLE13=The Emptiest Arms In The World
TTITLE14=Come On Into My Arms
TTITLE15=Radiator Man From Waco
TTITLE16=Uncle Lem
TTITLE17=Daddy Won't Be Home Again For Christmas
TTITLE18=Bobby Wants A Puppy For Christmas
TTITLE19=Silent Night
TTITLE20=Winter Wonderland
TTITLE21=White Christmas
TTITLE22=Silver Bells
TTITLE23=Jingle Bells
TTITLE24=Grandma's Homemade Christmas Card
TTITLE25=Santa Claus And Popcorn
EXTD=
EXTT0=
EXTT1=
EXTT2=
EXTT3=
EXTT4=
EXTT5=
EXTT6=
EXTT7=
EXTT8=
EXTT9=
EXTT10=
EXTT11=
EXTT12=
EXTT13=
EXTT14=
EXTT15=
EXTT16=
EXTT17=
EXTT18=
EXTT19=
EXTT20=
EXTT21=
EXTT22=
EXTT23=
EXTT24=
EXTT25=
PLAYORDER=
